<svg version="1.1" id="Layer_1" xmlns="http://www.w3.org/2000/svg" xmlns:xlink="http://www.w3.org/1999/xlink" x="0px" y="0px"
	 width="100%" viewBox="0 0 1024 1024" enable-background="new 0 0 1024 1024" xml:space="preserve">
<path fill="#000000" opacity="1.000000" stroke="none" 
	d="
M342.924988,358.992371 
	C363.857910,370.776459 384.509094,382.313385 405.054810,394.035187 
	C408.446350,395.970154 409.814056,395.704926 410.930450,391.740051 
	C414.939728,377.501465 419.385132,363.385529 423.379211,349.142914 
	C424.231598,346.103302 425.823669,344.724945 428.601227,343.941040 
	C458.680481,335.451660 488.758118,326.956085 518.801880,318.342529 
	C521.291931,317.628662 523.307495,318.087830 525.512817,319.002075 
	C540.583740,325.249756 555.606018,331.625458 570.802856,337.552399 
	C575.475037,339.374664 576.771240,341.338104 575.185791,346.338318 
	C567.697205,369.954895 560.653870,393.712341 553.265503,417.361389 
	C552.230835,420.673096 552.433472,422.875366 555.245850,425.164246 
	C577.221436,443.049530 598.710999,461.496429 619.140503,481.150208 
	C619.844910,481.827881 620.709839,482.338593 621.472595,482.906738 
	C623.594482,481.881897 623.629517,479.848297 624.099426,478.179932 
	C637.122864,431.939850 650.111450,385.689941 663.061829,339.429352 
	C664.359680,334.793152 665.113647,329.992493 666.603455,325.425842 
	C667.964294,321.254761 667.264648,318.774384 662.647278,317.981537 
	C661.543213,317.791962 660.519531,317.133972 658.810730,316.420990 
	C660.612732,307.884033 662.318176,299.317657 664.269958,290.807800 
	C665.007996,287.589905 667.415222,288.751160 669.512573,289.371216 
	C693.116150,296.349335 716.705872,303.375702 740.339172,310.251953 
	C774.507751,320.193512 808.689453,330.091553 842.922241,339.808594 
	C847.065735,340.984711 848.162659,342.651062 846.962158,346.734375 
	C844.634766,354.650452 844.267273,363.043121 841.771301,370.772766 
	C841.000427,370.882751 840.655518,371.023224 840.351135,370.962189 
	C830.142700,368.915558 830.093933,368.899261 827.241943,379.312012 
	C806.906250,453.558289 785.203857,527.407776 762.764709,601.041504 
	C761.713867,604.489929 762.411621,606.487366 765.040771,608.711365 
	C773.562439,615.919739 781.881287,623.367493 790.319702,630.675171 
	C791.318542,631.540161 792.573975,632.109009 794.064941,633.035461 
	C788.017517,640.023315 782.800903,646.028198 777.608887,652.054260 
	C741.513489,693.948547 705.397705,735.825256 669.343323,777.754822 
	C653.595947,796.068237 637.977661,814.492737 622.301086,832.867065 
	C622.192932,832.993835 622.070923,833.113708 621.987061,833.255493 
	C620.837524,835.199219 617.936401,836.737427 618.898560,839.142090 
	C620.054321,842.030823 623.302979,840.668091 625.632141,840.829834 
	C648.099915,842.389954 670.606689,841.369324 693.094421,841.711853 
	C695.938171,841.755127 698.730286,841.886169 701.495911,842.641296 
	C709.111389,844.720764 713.120361,850.850891 712.379028,859.416565 
	C711.789490,866.228027 706.404663,871.474487 699.344666,872.398376 
	C692.706909,873.266968 686.044434,873.179382 679.384521,873.235840 
	C643.560669,873.539429 607.736694,873.853394 571.912170,874.025330 
	C568.319397,874.042603 566.348389,875.275024 564.423279,878.371582 
	C546.507324,907.188660 522.236572,927.741821 488.002899,933.688171 
	C469.706573,936.866150 451.652740,935.101196 438.350952,920.005310 
	C433.509186,914.510376 428.982635,912.204895 421.658752,912.060059 
	C405.924530,911.748779 392.850067,900.493164 387.753815,884.035461 
	C386.564606,880.195068 384.730774,877.815369 380.998810,876.275391 
	C375.872375,874.160034 371.456299,870.805908 367.892517,866.501282 
	C366.243713,864.509705 364.144714,863.218567 361.975433,861.986084 
	C319.539856,837.876282 277.080719,813.807800 234.692749,789.614624 
	C231.655075,787.880859 229.062927,787.711731 225.799408,788.786072 
	C209.750153,794.069641 194.122482,800.178589 180.691315,810.771912 
	C173.805969,816.202393 167.893585,822.448669 165.056015,831.048035 
	C162.799866,837.885315 164.078018,841.401733 170.456924,844.550232 
	C176.958817,847.759583 184.041168,848.898682 191.165253,849.644226 
	C207.111908,851.312988 223.118423,850.531677 239.101349,850.634033 
	C254.096207,850.730103 269.089447,850.691772 284.079193,850.044739 
	C289.395538,849.815247 294.502747,850.726807 297.344879,856.120605 
	C301.752411,864.485107 296.279938,873.753906 286.460388,874.241638 
	C280.308685,874.547180 274.130371,874.326111 267.963989,874.325562 
	C246.298004,874.323608 224.627258,874.588257 202.967728,874.211365 
	C188.779938,873.964539 174.805328,871.855896 161.685760,865.873352 
	C140.095734,856.028198 133.589157,836.010742 145.303665,815.419189 
	C148.963867,808.985413 153.635742,803.377136 159.084457,798.404724 
	C170.424103,788.056580 183.719635,780.851990 197.549973,774.500244 
	C199.028442,773.821228 200.810791,773.615784 201.905838,771.994080 
	C201.856766,769.726562 199.789703,769.303894 198.301712,768.470032 
	C177.813507,756.989929 157.364731,745.436218 136.742432,734.201355 
	C132.379715,731.824585 130.721680,729.138977 130.734879,724.067871 
	C130.954086,639.904968 130.957932,555.741455 131.009918,471.578125 
	C135.247314,454.497192 127.044144,441.460449 117.379692,428.736084 
	C112.526993,422.346954 112.760262,422.075043 118.166428,416.084686 
	C150.201462,380.587891 182.268356,345.119843 214.314392,309.632935 
	C217.775879,305.799774 221.352341,302.049500 224.540253,297.997040 
	C226.980530,294.895050 229.087952,294.806793 232.520584,296.657715 
	C259.650116,311.286560 286.306335,326.751434 313.109772,341.956024 
	C322.959320,347.543304 332.776184,353.188324 342.924988,358.992371 
M445.238922,439.319031 
	C427.957275,429.279053 410.733337,419.138153 393.383026,409.218262 
	C344.508728,381.274841 295.563080,353.456085 246.695938,325.500153 
	C238.619354,320.879700 239.902557,321.492126 234.539703,327.499481 
	C205.471207,360.061218 176.514420,392.722717 147.511887,425.343384 
	C140.677460,433.030396 140.259140,430.293518 146.656586,439.508118 
	C184.372910,493.833130 222.219528,548.067688 259.967224,602.370972 
	C290.489532,646.279907 320.921509,690.251770 351.455902,734.152283 
	C352.806946,736.094727 353.687439,738.681641 356.358215,739.393799 
	C358.102173,738.540894 358.741760,736.949097 359.580688,735.532349 
	C364.502075,727.220642 369.327728,718.851013 374.340698,710.595093 
	C419.295807,636.557312 463.137573,561.855713 507.437347,487.427185 
	C511.891876,479.943085 511.839996,479.758759 504.567230,474.877014 
	C485.602875,462.147369 465.442291,451.408447 445.238922,439.319031 
M249.237457,628.203674 
	C228.905991,598.744202 208.574524,569.284668 187.524323,538.783813 
	C186.739395,541.162659 186.474472,541.755981 186.348480,542.377441 
	C180.341431,572.004150 174.297623,601.623657 168.364410,631.265198 
	C162.953110,658.299377 157.773560,685.380615 152.199234,712.380737 
	C151.374542,716.375244 152.585800,717.967468 155.821030,719.714050 
	C175.754013,730.474854 195.663589,741.284241 215.429840,752.347473 
	C247.551712,770.326294 279.581177,788.470886 311.577545,806.672302 
	C315.036407,808.639893 316.970703,808.551941 319.047150,804.828430 
	C325.697937,792.902039 332.548126,781.082153 339.568909,769.369568 
	C341.738159,765.750671 341.762329,762.917969 339.331665,759.389771 
	C309.372742,715.903198 279.529114,672.337219 249.237457,628.203674 
M727.030090,337.635712 
	C715.256409,334.069092 703.483459,330.500122 691.708862,326.936707 
	C685.502014,325.058319 685.401611,325.036774 683.825867,331.074921 
	C669.976196,384.146271 654.627808,436.802094 639.709351,489.575317 
	C638.100891,495.264862 639.055481,498.634766 643.421387,502.429077 
	C668.940979,524.607300 694.188538,547.098267 719.641724,569.353455 
	C724.206848,573.344849 728.360046,577.935303 734.066162,581.048889 
	C734.685608,579.522400 735.278931,578.349487 735.647461,577.109680 
	C745.878418,542.691589 756.073914,508.262970 766.314514,473.847748 
	C767.617004,469.470428 766.323608,467.135651 761.750977,465.805359 
	C745.789307,461.161530 729.920410,456.198364 714.021729,451.338776 
	C703.733093,448.193970 693.453796,445.018311 682.637146,441.692535 
	C684.234680,437.791168 685.678223,434.460602 686.962463,431.069733 
	C688.047302,428.205566 689.615967,427.383942 692.716187,428.440063 
	C702.946228,431.924988 713.276428,435.115265 723.560791,438.441437 
	C737.804199,443.047974 752.086182,447.542328 766.253479,452.372498 
	C770.627747,453.863831 772.734497,452.953705 773.569641,448.387726 
	C774.135254,445.295105 775.179016,442.286285 776.066345,439.256775 
	C778.319763,431.562653 778.341309,431.536743 770.880676,429.361389 
	C748.223572,422.755066 725.555847,416.184967 702.898865,409.578064 
	C692.068054,406.419708 692.170532,406.436676 696.559082,395.992004 
	C697.846497,392.928070 699.377075,391.959625 702.608826,393.102325 
	C708.092896,395.041382 713.685608,396.675354 719.243347,398.403473 
	C738.935730,404.526733 758.636841,410.622345 778.321594,416.770020 
	C780.321228,417.394531 782.325684,418.286163 783.148193,415.401733 
	C784.958252,409.054047 787.305054,402.832550 788.294617,395.928741 
	C786.105835,395.219391 784.248291,394.557312 782.356750,394.013489 
	C759.674438,387.492188 736.984924,380.996399 714.302307,374.476349 
	C703.751770,371.443634 703.939026,371.479736 706.954346,361.198486 
	C708.154907,357.104614 709.962769,356.530823 713.778259,357.745697 
	C732.001282,363.547913 750.293823,369.132294 768.571411,374.762482 
	C776.288574,377.139587 784.029846,379.438751 792.031433,381.855286 
	C794.557556,373.935181 796.826782,366.712830 798.362244,358.898651 
	C774.573486,351.831055 751.177429,344.880096 727.030090,337.635712 
M642.912842,612.538879 
	C636.470215,603.638550 629.980774,594.771484 623.613953,585.817261 
	C621.741333,583.183716 619.349915,581.901550 616.216003,581.333618 
	C597.436035,577.930359 578.651733,574.539185 559.931458,570.828125 
	C555.567078,569.963013 552.838623,570.669250 550.371094,574.578735 
	C541.221497,589.075256 531.855225,603.437195 522.393799,617.732849 
	C520.517151,620.568298 520.807373,622.619385 522.547913,625.341125 
	C535.192932,645.114502 547.709045,664.970459 560.212463,684.833923 
	C561.933105,687.567322 564.192078,689.186279 567.404480,689.571106 
	C587.345520,691.960327 607.209839,694.863281 626.959778,698.525269 
	C630.042786,699.096924 632.181580,698.281616 633.987366,695.345764 
	C643.491943,679.893188 653.117249,664.511597 662.958923,649.272156 
	C665.262146,645.705688 664.903137,643.125244 662.531860,639.914307 
	C656.005249,631.076599 649.719238,622.061218 642.912842,612.538879 
M478.102875,913.684387 
	C494.620270,911.380859 508.581726,903.516907 521.356140,893.359985 
	C534.480896,882.924438 544.938049,870.376160 549.936646,854.010681 
	C553.480103,842.409302 550.552795,832.353516 542.328857,826.858459 
	C536.674133,823.080017 530.358826,820.966125 523.666992,820.414124 
	C487.150574,817.402344 451.486359,844.860718 444.667816,881.083679 
	C441.983582,895.343506 449.657257,909.305786 462.312775,912.993896 
	C467.179749,914.412109 472.194733,914.061646 478.102875,913.684387 
M419.231384,825.710449 
	C409.137909,839.614441 401.857666,854.451294 403.306030,872.329529 
	C404.042816,881.424561 410.075134,889.602356 417.727356,891.174316 
	C414.909424,858.607788 433.923248,837.503113 456.525391,818.778198 
	C480.352997,799.038025 507.656403,795.224915 537.322571,804.335388 
	C533.651550,798.438232 529.843140,793.489746 524.058472,791.039856 
	C509.345337,784.808655 494.083801,782.369751 478.239197,785.931946 
	C453.674042,791.454651 435.199890,806.108704 419.231384,825.710449 
M420.663300,785.101013 
	C421.897186,784.251099 423.108887,783.366760 424.368286,782.556519 
	C441.976105,771.228394 460.585724,763.539307 482.172882,766.632507 
	C484.961090,767.031982 487.761871,767.449890 490.569672,767.578857 
	C493.772491,767.725769 494.544464,766.058411 492.766144,763.533020 
	C490.537506,760.368042 487.824280,757.677612 483.944489,756.519165 
	C472.125031,752.990173 460.053558,752.146179 447.918091,753.963501 
	C427.650116,756.998596 410.664276,766.833923 395.734528,780.438477 
	C384.307281,790.851440 374.438141,802.523438 369.203705,817.375366 
	C365.171082,828.817200 364.689575,840.182861 371.535431,850.920654 
	C372.534546,852.487793 373.249969,854.594055 376.101837,854.662537 
	C376.791870,849.578552 377.307678,844.494141 378.977753,839.636292 
	C386.735046,817.071838 401.937531,800.187500 420.663300,785.101013 
M506.794403,638.376831 
	C502.460907,645.075745 498.201050,651.824097 493.756805,658.448730 
	C492.040466,661.007141 492.018646,663.199280 493.687042,665.771179 
	C505.540253,684.044067 517.375610,702.329102 529.076294,720.699707 
	C531.352600,724.273499 533.273804,723.805603 535.520020,720.993347 
	C539.773315,715.668213 543.809021,710.156006 548.285950,705.027771 
	C550.987122,701.933594 551.321594,699.622681 548.995728,695.934692 
	C537.379150,677.514893 526.125610,658.866455 514.703369,640.323669 
	C513.507385,638.382141 512.702759,636.079163 510.496887,634.926514 
	C508.733307,635.200317 508.185883,636.758118 506.794403,638.376831 
z"/>
<path fill="#000000" opacity="1.000000" stroke="none" 
	d="
M762.265564,726.252686 
	C776.813904,712.685608 793.923340,705.703735 813.269470,705.903015 
	C849.078430,706.271973 878.085571,730.479187 886.288025,763.788086 
	C896.956726,807.111755 868.411194,849.613953 824.091675,856.500366 
	C784.727234,862.616760 745.664062,834.093872 739.639221,794.731873 
	C735.585632,768.248535 742.711365,745.358887 762.265564,726.252686 
z"/>
<path fill="#000000" opacity="1.000000" stroke="none" 
	d="
M439.593628,137.483246 
	C446.419800,152.648590 453.090759,167.468918 459.761719,182.289246 
	C460.061584,182.245789 460.361420,182.202332 460.661285,182.158875 
	C460.661285,180.243423 460.661072,178.327957 460.661285,176.412506 
	C460.664459,151.091232 460.778809,125.769043 460.571014,100.449493 
	C460.532532,95.757576 462.089600,94.450966 466.571960,94.584602 
	C476.225861,94.872414 485.897186,94.855804 495.553955,94.636765 
	C499.719482,94.542282 501.445374,95.586639 501.433380,100.174866 
	C501.294922,153.149292 501.314972,206.124268 501.408783,259.098877 
	C501.415619,262.950897 500.235748,264.423798 496.283112,264.362335 
	C484.624878,264.180969 472.961487,264.235260 461.301361,264.337372 
	C458.583008,264.361145 457.057892,263.329071 455.926331,260.892303 
	C444.218719,235.680435 432.438660,210.502182 420.658997,185.323807 
	C419.696075,183.265610 419.048706,180.985977 417.011322,179.390701 
	C415.742371,181.312119 416.274414,183.346817 416.271118,185.253098 
	C416.229462,209.408035 416.129822,233.563995 416.332642,257.717285 
	C416.373871,262.625885 415.069580,264.550110 409.881500,264.344177 
	C399.900665,263.948029 389.895538,264.108795 379.900879,264.146362 
	C376.582977,264.158844 374.971771,262.925507 375.127655,259.425690 
	C376.477356,229.124710 374.720825,198.829681 374.887329,168.528458 
	C375.011841,145.874054 374.879028,123.216194 374.591095,100.563286 
	C374.532379,95.942116 375.984833,94.511635 380.546631,94.608856 
	C392.368713,94.860779 404.200378,94.712540 416.027588,94.632469 
	C418.720795,94.614235 420.735260,95.018379 421.990967,97.903946 
	C427.702026,111.027641 433.604706,124.067947 439.593628,137.483246 
z"/>
<path fill="#000000" opacity="1.000000" stroke="none" 
	d="
M642.523071,99.331551 
	C630.117065,122.963478 617.934753,146.281540 605.578247,169.506897 
	C603.918274,172.626877 603.816956,175.111755 605.419617,178.294388 
	C618.827332,204.920700 632.078796,231.625732 645.357117,258.317139 
	C646.154541,259.919983 647.348389,261.408722 647.205444,263.384521 
	C646.054993,264.840393 644.448547,264.344696 643.040222,264.347748 
	C631.044312,264.373718 619.044312,264.162476 607.054382,264.425873 
	C603.015137,264.514618 601.139893,262.898010 599.567505,259.457062 
	C591.956604,242.801941 584.159485,226.231644 576.366638,209.660278 
	C575.404541,207.614258 574.906738,205.196991 571.866882,203.377686 
	C567.684692,211.108948 560.455139,217.104050 560.359192,226.837906 
	C560.254089,237.500046 560.193909,248.166702 560.401611,258.825775 
	C560.478821,262.787506 559.464050,264.512329 555.143250,264.408264 
	C544.652710,264.155670 534.150513,264.223358 523.656372,264.382599 
	C520.012695,264.437866 518.646790,263.151794 518.651245,259.469543 
	C518.716125,206.153809 518.717468,152.837906 518.625610,99.522224 
	C518.619080,95.751038 520.048645,94.617760 523.628845,94.667183 
	C534.123291,94.812042 544.625549,94.885574 555.115662,94.623734 
	C559.432739,94.515976 560.439026,96.234688 560.408875,100.191772 
	C560.263062,119.351013 560.346130,138.512009 560.348022,157.672379 
	C560.348267,159.637299 560.348083,161.602234 561.328735,163.888611 
	C563.039307,161.151123 564.865540,158.478424 566.441772,155.665634 
	C576.781250,137.214645 587.204773,118.808060 597.266052,100.205872 
	C599.585632,95.917221 602.292908,94.395363 607.075562,94.555031 
	C617.394043,94.899498 627.731934,94.645073 638.061768,94.677490 
	C639.868774,94.683159 641.735718,94.345650 643.450684,95.237350 
	C644.153870,96.697136 643.204834,97.798309 642.523071,99.331551 
z"/>
<path fill="#000000" opacity="1.000000" stroke="none" 
	d="
M319.649963,148.999908 
	C319.654419,132.508957 319.792694,116.516243 319.579987,100.528198 
	C319.518646,95.916870 321.109833,94.463203 325.639343,94.593010 
	C335.625885,94.879211 345.628021,94.838150 355.618744,94.655197 
	C359.623169,94.581879 361.296539,95.829216 361.289307,100.042564 
	C361.222229,139.020203 361.544037,178.000061 361.235413,216.975174 
	C361.048126,240.624817 341.923706,261.392426 317.723083,265.228241 
	C300.554230,267.949554 284.178314,266.181213 269.631622,255.732468 
	C255.037704,245.249786 248.030060,230.555038 247.866379,212.924347 
	C247.516937,175.281952 247.742783,137.634476 247.573135,99.989815 
	C247.554276,95.805275 248.969559,94.502846 253.047333,94.610680 
	C263.202393,94.879234 273.370819,94.975616 283.525879,94.761490 
	C288.171051,94.663551 289.443176,96.387413 289.425446,100.879761 
	C289.279724,137.858231 289.332275,174.837570 289.363464,211.816589 
	C289.369720,219.242844 293.046814,224.670120 299.393677,226.953262 
	C305.361450,229.100037 311.938934,227.181046 316.625000,222.136856 
	C319.488983,219.054001 319.860962,215.378189 319.843475,211.463257 
	C319.751221,190.808929 319.709534,170.154388 319.649963,148.999908 
z"/>
<path fill="#000000" opacity="1.000000" stroke="none" 
	d="
M887.647827,144.783173 
	C893.059937,129.526154 898.487854,114.686584 903.625000,99.747040 
	C904.900940,96.036613 906.655457,94.474464 910.751282,94.571144 
	C922.236145,94.842224 933.731750,94.644730 945.222961,94.685112 
	C946.828918,94.690758 948.557617,94.228859 950.571289,95.860313 
	C947.623535,102.832069 944.615845,109.976845 941.583801,117.111237 
	C929.284546,146.051331 916.987122,174.992203 904.655579,203.918533 
	C903.718567,206.116547 903.365662,208.327591 903.388733,210.707764 
	C903.548706,227.190277 903.573792,243.674347 903.797668,260.155792 
	C903.839172,263.208160 902.806824,264.313416 899.785278,264.289185 
	C888.294739,264.196991 876.801147,264.138123 865.312927,264.325531 
	C861.392761,264.389496 860.578247,262.651794 860.612976,259.189972 
	C860.743408,246.201065 860.202637,233.188309 860.813232,220.226868 
	C861.291321,210.078796 858.797974,201.009064 854.780701,191.871414 
	C841.256348,161.109360 828.096924,130.186783 814.815857,99.317894 
	C814.306030,98.132858 813.400635,97.001320 813.962708,95.452171 
	C815.472290,94.109314 817.386230,94.700783 819.129333,94.691483 
	C830.287231,94.631897 841.454102,94.915527 852.600037,94.544373 
	C857.576477,94.378662 859.914307,95.932999 861.491821,100.762772 
	C867.270874,118.455963 873.524658,135.994232 879.619751,153.583908 
	C880.213928,155.298798 880.945740,156.966034 882.030151,159.708542 
	C884.092285,154.280838 885.824219,149.722260 887.647827,144.783173 
z"/>
<path fill="#000000" opacity="1.000000" stroke="none" 
	d="
M739.000977,264.326660 
	C734.002441,264.319214 729.500000,264.199097 725.005920,264.341492 
	C721.758484,264.444397 720.412903,263.077576 720.675598,259.895447 
	C720.771179,258.737244 720.681824,257.564026 720.681702,256.397675 
	C720.676758,204.743652 720.670044,153.089615 720.670532,101.435593 
	C720.670593,94.681259 720.687683,94.664398 727.582153,94.664864 
	C752.076172,94.666527 776.571655,94.824112 801.063049,94.574532 
	C806.236572,94.521812 807.640808,96.184700 807.449219,101.137253 
	C807.095276,110.288017 807.177246,119.466751 807.422668,128.624588 
	C807.533936,132.779053 806.050110,134.225632 801.960999,134.160294 
	C791.133179,133.987320 780.300781,134.089142 769.470215,134.104309 
	C762.560608,134.113968 762.349182,134.327698 762.338806,140.980591 
	C762.329224,147.145737 762.512878,153.317429 762.280151,159.473709 
	C762.133423,163.354843 763.462769,164.794403 767.433228,164.710663 
	C777.426270,164.499908 787.428711,164.758209 797.423157,164.582855 
	C801.061401,164.519012 802.453979,165.710754 802.378601,169.441422 
	C802.190002,178.768661 802.139893,188.107010 802.393738,197.431122 
	C802.506897,201.590820 800.727478,202.463882 797.047119,202.400986 
	C787.385742,202.235901 777.715881,202.516144 768.056885,202.293884 
	C763.766541,202.195175 762.194458,203.565903 762.248535,208.008881 
	C762.455200,225.002197 762.217651,242.000839 762.409302,258.994507 
	C762.456116,263.144287 761.128540,264.591095 756.992615,264.391235 
	C751.174500,264.110046 745.332458,264.324158 739.000977,264.326660 
z"/>
<path fill="#000000" opacity="1.000000" stroke="none" 
	d="
M122.660950,221.800964 
	C122.656677,212.189285 122.656677,203.054459 122.656677,193.983017 
	C125.671158,192.168610 128.465866,193.755844 131.196381,193.654205 
	C140.334564,193.314087 149.510162,194.323624 158.620651,192.905563 
	C161.983704,192.382126 163.397491,193.573181 163.417679,197.190033 
	C163.453827,203.663025 162.587448,210.195984 163.938721,216.609650 
	C165.843781,225.651688 171.155197,229.691422 179.329361,228.591003 
	C186.731598,227.594498 191.626907,221.489655 191.336395,213.242218 
	C190.011230,175.620361 191.019241,137.985825 190.582993,100.360504 
	C190.533661,96.106903 191.618759,94.434227 196.144531,94.568840 
	C206.293854,94.870743 216.465103,94.901978 226.612976,94.583458 
	C231.414093,94.432762 232.451141,96.335945 232.424240,100.702408 
	C232.282669,123.681976 232.329269,146.663406 232.440506,169.643555 
	C232.507385,183.458115 232.669037,197.275360 233.042252,211.084534 
	C233.610580,232.112946 225.820816,248.957352 207.579895,259.785187 
	C193.675873,268.038635 178.329529,268.594666 162.641571,265.528320 
	C145.024811,262.084961 133.128540,251.802841 125.793526,235.794876 
	C123.840340,231.532242 122.858322,226.980301 122.660950,221.800964 
z"/>
<path fill="#000000" opacity="1.000000" stroke="none" 
	d="
M702.431396,157.141373 
	C702.432068,193.003265 702.432068,228.383835 702.432068,264.282593 
	C689.204224,264.282593 676.583191,264.273590 663.962219,264.290710 
	C661.622742,264.293854 660.687927,263.087524 660.721069,260.872681 
	C660.740967,259.541168 660.678528,258.208649 660.678345,256.876587 
	C660.671448,205.082352 660.664673,153.288132 660.666077,101.493896 
	C660.666321,94.681694 660.686462,94.660423 667.508667,94.665421 
	C677.334473,94.672615 687.162537,94.844688 696.985107,94.679390 
	C701.098999,94.610168 702.440674,96.115189 702.409973,100.221970 
	C702.269531,119.033554 702.398499,137.847153 702.431396,157.141373 
z"/>
<path fill="#000000" opacity="1.000000" stroke="none" 
	d="
M277.716675,426.167419 
	C296.165192,433.931549 314.248932,441.580353 332.401001,449.063385 
	C335.435486,450.314331 336.078156,451.906036 335.741852,455.145599 
	C334.078613,471.166504 332.858398,487.232788 331.302582,503.265656 
	C330.084625,515.817078 328.609894,528.343750 327.217255,540.877808 
	C327.170227,541.301025 326.776489,541.685669 326.200928,542.684021 
	C319.774109,537.729980 313.491516,532.914246 307.237488,528.061646 
	C281.065216,507.754242 254.926193,487.403778 228.697891,467.169006 
	C225.963913,465.059814 224.273773,462.921631 224.686600,459.286530 
	C226.502579,443.296783 228.195679,427.293091 229.989029,411.300720 
	C230.133987,410.007965 230.700790,408.762512 231.293594,406.736237 
	C246.831635,413.230591 262.103210,419.613556 277.716675,426.167419 
z"/>
<path fill="#000000" opacity="1.000000" stroke="none" 
	d="
M212.770401,615.062012 
	C224.490402,618.114319 222.848129,616.595032 220.812973,627.473145 
	C220.343307,629.983643 220.560715,632.848633 218.028687,635.143127 
	C210.971375,633.172729 203.704956,631.143982 196.034760,629.002441 
	C196.861847,623.059998 198.597641,617.807312 200.233383,612.314331 
	C204.643967,612.231445 208.384674,614.240662 212.770401,615.062012 
z"/>
<path fill="#000000" opacity="1.000000" stroke="none" 
	d="
M199.429642,689.761353 
	C195.526062,688.695007 192.047882,687.558838 188.481155,686.907837 
	C184.922668,686.258301 183.947983,684.733215 184.828903,681.136902 
	C188.103195,667.769836 188.003098,667.745239 201.175995,672.231934 
	C210.021042,675.244568 210.021027,675.244629 208.281830,684.441895 
	C206.908920,691.702087 206.908920,691.702087 199.429642,689.761353 
z"/>
<path fill="#000000" opacity="1.000000" stroke="none" 
	d="
M278.418732,729.547974 
	C278.891418,726.910095 280.267456,726.599976 282.194275,727.102356 
	C286.535858,728.234375 290.880096,729.361267 295.247375,730.387512 
	C297.704254,730.964844 298.436127,732.269775 297.902161,734.738525 
	C297.201782,737.976624 296.698364,741.268066 296.312775,744.560242 
	C295.967072,747.511658 294.873138,748.713257 291.714722,747.733826 
	C287.594482,746.456238 283.403503,745.314819 279.165405,744.537659 
	C275.680817,743.898682 275.317322,741.896423 275.971802,739.119019 
	C276.695129,736.049377 277.506348,733.000488 278.418732,729.547974 
z"/>
<path fill="#000000" opacity="1.000000" stroke="none" 
	d="
M584.935547,600.650391 
	C608.201172,601.314026 630.342346,622.726624 630.346680,644.119568 
	C630.350647,663.687622 614.268005,678.201904 594.722717,676.269287 
	C571.545776,673.977661 552.673096,651.526123 554.503967,628.423889 
	C555.824768,611.759094 567.717407,600.737122 584.935547,600.650391 
M593.780701,644.747314 
	C597.117920,648.468262 599.636719,652.994507 604.297119,656.214172 
	C604.201843,649.421021 599.254272,642.830872 593.182495,640.657898 
	C591.729065,641.916138 592.881958,643.031006 593.780701,644.747314 
z"/>
<path fill="#000000" opacity="1.000000" stroke="none" 
	d="
M528.292236,854.948364 
	C517.739563,874.925659 502.398468,888.520203 480.451019,893.696167 
	C470.019684,896.156250 463.937042,889.698242 466.358734,879.245667 
	C471.440704,857.310547 496.467560,837.547546 519.030579,837.652100 
	C528.670715,837.696777 532.046692,842.064209 529.539795,851.282349 
	C529.235962,852.399597 528.796631,853.479980 528.292236,854.948364 
z"/>
</svg>